<?xml version="1.0" encoding="UTF-8"?>
<svg id="Layer_1" data-name="Layer 1" xmlns="http://www.w3.org/2000/svg" viewBox="0 0 1021.88 1021.88">
  <defs>
    <style>
      .cls-1 {
        fill: #2b2b2b;
        stroke-width: 0px;
      }
    </style>
  </defs>
  <path class="cls-1" d="M697.54,186.87c-21.01-41.32-51.31-74.03-90.9-98.14-39.6-24.44-82.47-36.67-128.6-36.67h-113.11c-67.84,0-126.02,24.11-174.58,72.31-48.21,48.55-72.31,106.74-72.31,174.57v229.32c0,67.84,24.1,126.02,72.31,174.58,48.55,48.2,106.73,72.3,174.58,72.3h74.34l26.68-76.96h-92.24c-46.83,0-86.94-16.52-120.34-49.58-33.41-33.39-50.1-73.5-50.1-120.34v-229.32c0-46.83,16.69-86.94,50.1-120.34,33.4-33.05,73.51-49.58,120.34-49.58h95.55c32.02,0,61.63,8.27,88.84,24.79,27.19,16.88,48.04,39.6,62.5,68.18l19.62,37.19,74.89-38.22-17.56-34.09Z"/>
  <polygon class="cls-1" points="903.84 388.81 418.64 388.81 391.95 465.8 607.17 465.8 432.55 969.81 513.98 969.81 688.64 465.8 877.15 465.8 903.84 388.81"/>
</svg>