<?xml version="1.0" encoding="UTF-8"?>
<svg id="Layer_1" data-name="Layer 1" xmlns="http://www.w3.org/2000/svg" viewBox="0 0 1021.88 1021.88">
  <defs>
    <style>
      .cls-1 {
        fill: #2b2b2b;
        stroke-width: 0px;
      }
    </style>
  </defs>
  <g>
    <path class="cls-1" d="M679,582.21c-1.58-4.86-3.66-9.21-6.23-13.08-2.57-3.86-5.62-7.17-9.15-9.9-3.53-2.73-7.53-4.83-12-6.27-4.46-1.44-9.36-2.16-14.7-2.16-8.74,0-16.69,2.26-23.85,6.77-7.15,4.52-12.85,11.17-17.07,19.95-4.23,8.79-6.34,19.57-6.34,32.35s2.14,23.56,6.41,32.35c4.27,8.79,10.06,15.44,17.36,19.95,7.3,4.52,15.51,6.77,24.64,6.77,8.45,0,15.91-1.81,22.37-5.44,6.46-3.62,11.5-8.76,15.13-15.42,3.62-6.65,5.44-14.49,5.44-23.52l5.47,1.15h-44.38v-15.85h56.2v15.85c0,12.15-2.59,22.72-7.75,31.7-5.17,8.99-12.27,15.94-21.32,20.86-9.06,4.92-19.45,7.38-31.16,7.38-13.07,0-24.53-3.07-34.4-9.22-9.87-6.15-17.55-14.89-23.06-26.23-5.5-11.33-8.25-24.78-8.25-40.34,0-11.67,1.57-22.18,4.72-31.52,3.14-9.34,7.6-17.3,13.36-23.89,5.76-6.58,12.58-11.62,20.46-15.13,7.88-3.5,16.55-5.26,26.01-5.26,7.78,0,15.05,1.16,21.79,3.5,6.75,2.33,12.78,5.62,18.09,9.87s9.73,9.32,13.29,15.2c3.55,5.88,6,12.4,7.34,19.56h-18.45Z"/>
    <path class="cls-1" d="M825.68,536.1h17.87v97.69c0,10.09-2.37,19.08-7.1,26.98-4.73,7.9-11.4,14.12-19.99,18.66-8.6,4.54-18.69,6.81-30.26,6.81s-21.66-2.27-30.26-6.81c-8.6-4.54-15.26-10.76-19.99-18.66-4.74-7.9-7.1-16.9-7.1-26.98v-97.69h17.87v96.26c0,7.2,1.59,13.6,4.75,19.19,3.17,5.6,7.7,10,13.58,13.19,5.89,3.19,12.93,4.79,21.15,4.79s15.27-1.6,21.18-4.79c5.91-3.19,10.43-7.59,13.58-13.19,3.14-5.59,4.72-11.99,4.72-19.19v-96.26Z"/>
    <path class="cls-1" d="M959.98,572.99c-.87-7.3-4.38-12.97-10.52-17s-13.69-6.05-22.62-6.05c-6.53,0-12.24,1.05-17.11,3.16-4.87,2.11-8.67,5.02-11.38,8.72-2.71,3.7-4.07,7.9-4.07,12.61,0,3.94.94,7.31,2.85,10.12,1.9,2.81,4.33,5.14,7.31,6.99,2.97,1.85,6.1,3.36,9.37,4.54,3.26,1.18,6.27,2.13,9,2.85l14.99,4.03c3.85,1.01,8.13,2.4,12.86,4.18,4.73,1.78,9.27,4.19,13.62,7.24,4.34,3.05,7.94,6.96,10.77,11.71,2.83,4.76,4.25,10.59,4.25,17.51,0,7.97-2.08,15.18-6.23,21.61-4.16,6.44-10.21,11.55-18.16,15.35-7.95,3.8-17.59,5.7-28.93,5.7-10.57,0-19.7-1.71-27.41-5.12-7.71-3.4-13.76-8.16-18.16-14.27-4.39-6.1-6.88-13.18-7.46-21.25h18.45c.48,5.58,2.37,10.17,5.65,13.8,3.29,3.62,7.47,6.32,12.54,8.06,5.07,1.76,10.53,2.63,16.39,2.63,6.82,0,12.94-1.11,18.38-3.35,5.43-2.23,9.72-5.36,12.89-9.37,3.17-4,4.76-8.71,4.76-14.08,0-4.9-1.37-8.88-4.11-11.96-2.73-3.07-6.34-5.57-10.81-7.49-4.47-1.92-9.3-3.6-14.48-5.04l-18.16-5.19c-11.53-3.31-20.65-8.04-27.38-14.2-6.72-6.15-10.09-14.19-10.09-24.13,0-8.26,2.24-15.47,6.73-21.65,4.5-6.17,10.54-10.97,18.16-14.41,7.61-3.43,16.13-5.15,25.54-5.15s17.96,1.69,25.35,5.08c7.4,3.39,13.27,8.01,17.62,13.87,4.34,5.86,6.63,12.51,6.88,19.95h-17.29Z"/>
  </g>
  <g>
    <path class="cls-1" d="M501.62,254.19c-16.64-32.73-40.64-58.64-72-77.73-31.37-19.36-65.33-29.05-101.87-29.05h-89.6c-53.74,0-99.82,19.09-138.28,57.28-38.19,38.45-57.28,84.55-57.28,138.28v181.64c0,53.73,19.09,99.82,57.28,138.28,38.46,38.18,84.54,57.27,138.28,57.27h58.89l21.13-60.96h-73.07c-37.09,0-68.87-13.09-95.32-39.28-26.46-26.45-39.68-58.22-39.68-95.32v-181.64c0-37.09,13.22-68.87,39.68-95.32,26.45-26.18,58.23-39.28,95.32-39.28h75.69c25.36,0,48.82,6.55,70.37,19.64,21.54,13.37,38.05,31.37,49.5,54l15.54,29.46,59.32-30.27-13.91-27Z"/>
    <polygon class="cls-1" points="665.03 414.14 280.7 414.14 259.56 475.13 430.03 475.13 291.71 874.35 356.22 874.35 494.56 475.13 643.88 475.13 665.03 414.14"/>
  </g>
  <g>
    <path class="cls-1" d="M451.86,740.76l5.49-15.85h110.99v15.85h-46.4v131.7h-17.86v-131.7h-52.22Z"/>
    <path class="cls-1" d="M596.01,872.45v-147.55h89.05v15.85h-71.18v49.86h66.57v15.85h-66.57v50.14h72.33v15.85h-90.2Z"/>
    <path class="cls-1" d="M836.06,771.02h-17.87c-1.05-5.14-2.89-9.66-5.51-13.55-2.62-3.89-5.79-7.17-9.52-9.83s-7.84-4.67-12.36-6.02c-4.51-1.34-9.22-2.02-14.12-2.02-8.93,0-17.02,2.26-24.24,6.77-7.23,4.52-12.97,11.17-17.22,19.95-4.25,8.79-6.38,19.57-6.38,32.35s2.13,23.56,6.38,32.35c4.25,8.79,9.99,15.44,17.22,19.95,7.22,4.52,15.31,6.77,24.24,6.77,4.9,0,9.61-.67,14.12-2.02,4.52-1.35,8.63-3.36,12.36-6.02s6.89-5.96,9.52-9.87c2.62-3.91,4.45-8.42,5.51-13.51h17.87c-1.35,7.54-3.79,14.29-7.34,20.25-3.56,5.96-7.97,11.01-13.26,15.16-5.29,4.16-11.2,7.32-17.76,9.47-6.56,2.16-13.56,3.24-21.01,3.24-12.58,0-23.78-3.07-33.57-9.22-9.8-6.15-17.51-14.89-23.13-26.23-5.62-11.33-8.43-24.78-8.43-40.34s2.81-29.01,8.43-40.35c5.62-11.33,13.33-20.08,23.13-26.23s20.99-9.22,33.57-9.22c7.44,0,14.44,1.08,21.01,3.24,6.56,2.16,12.47,5.32,17.76,9.47,5.29,4.15,9.7,9.2,13.26,15.13,3.55,5.94,6,12.69,7.34,20.29Z"/>
    <path class="cls-1" d="M864.88,872.45v-147.55h17.87v65.71h78.67v-65.71h17.87v147.55h-17.87v-66h-78.67v66h-17.87Z"/>
  </g>
</svg>