<?xml version="1.0" encoding="UTF-8"?>
<svg id="Layer_1" data-name="Layer 1" xmlns="http://www.w3.org/2000/svg" viewBox="0 0 1157.74 938.83">
  <defs>
    <style>
      .cls-1 {
        fill: #464749;
      }

      .cls-1, .cls-2, .cls-3, .cls-4 {
        stroke-width: 0px;
      }

      .cls-2 {
        fill: #fafbfb;
      }

      .cls-3 {
        fill: #919193;
      }

      .cls-4 {
        fill: #1f1f20;
      }
    </style>
  </defs>
  <ellipse class="cls-4" cx="492.25" cy="837.67" rx="285.72" ry="13.56"/>
  <g>
    <path class="cls-4" d="M200.66,811.83c6.88-5.71,10.74-13.68,12.49-22.97,3.88-20.61,7.31-41.3,11.33-61.88,1.05-5.39,1.44-11.12,4.5-16,.74-1.18,1.17-2.75,3.04-2.6,1.84.15,1.49,1.86,1.94,2.92,2.23,5.29,4.12,10.73,7.09,15.7,2.33,3.9,5.49,6.7,10.02,7.5,4.68.82,9.47,1.17,14.17.61,4.15-.5,6.48-3.38,7.29-7.25.27-1.28.19-2.58.19-3.89,0-2.43-.38-4.73-.62-7.13-.15-1.55-.27-3.03-.67-4.54-.57-2.17-.38-4.64-.44-6.85-.08-2.9-.22-5.8-.39-8.69-.31-5.63-.69-11.26-.73-16.91-.07-9.43-1.9-18.29-6.4-26.54-2.2-4.04-4.54-8.02-7.16-11.8-1.51-2.17-1.73-3.9-1.11-6.56,1.07-4.63.49-9.18-2.01-13.7-2.73-4.92-6.84-7.6-11.57-9.84-1.43-.68-2.31-1.48-2.76-3.27-2.58-10.13-5.35-20.21-8.2-30.27-3.65-12.88-6.36-25.88-5.36-39.38.11-1.46-.56-3.15,1.2-4.63,1.94,2.17,3.84,4.29,5.75,6.41,3.21,3.58,6.93,5.74,12.03,5.7,16.73-.13,33.47-.02,50.2.04,40.39.15,80.78.38,121.17.41,3.51,0,4.36,1.28,4.53,4.39.75,13.66,1.63,27.32,2.51,40.98,1.28,20,2.71,39.98,3.84,59.99.77,13.67,2.41,27.29,2.17,41.01-.03,1.46.25,2.87-1.9,3.13-8.4,1.02-15.88,4.98-23.82,7.49-6.9,2.19-9.11,5.11-8.95,12.25.24,10.66.56,21.33,1.07,31.99.13,2.83-.87,3.63-3.5,3.92-9.73,1.07-19.25,3.22-28.56,6.28-10.34,3.4-17.52,10.48-22.08,20.01-4.17,8.7-6.44,18.18-7.15,27.79-.36,4.84.1,9.65-.08,14.47s-1,9.44,1.35,13.71c1.07,1.94,2.7,3.7,4.77,4.6,2.37,1.03,5.66.28,8.28.26,16.47-.12,32.94-.47,49.42-.47,73.77,0,147.57-.45,221.34.11,6.94.05,13.9-.42,20.87-.41,5.11,0,12.68-.1,16.33-4.37,2.97-3.48,2.69-8.87,2.88-13.15.34-7.75-1.08-15.94-2.67-23.5-3.83-18.12-13.77-31.31-31.62-37.93-9.76-3.62-19.89-5.51-30.09-7.17-2.2-.36-5.66.55-6.76-2.15-.83-2.03-.48-4.32-.47-6.45,0-2.34,0-4.69.04-7.04.11-5.07.37-10.15,1.13-15.17.89-5.88-.99-10.06-4.89-13.89-2.3-2.26-5.17-3.62-8.05-4.92-5.92-2.68-12.22-4.19-18.51-5.63-2.8-.64-3.96-1.55-3.79-4.81.34-6.74.48-13.49.89-20.25.81-13.35,1.19-26.73,1.66-40.11.97-27.13,1.94-54.25,2.74-81.39.08-2.82.76-3.56,3.59-3.54,45.72.32,91.44.49,137.16.78,16.29.1,31.1-14.8,30.98-31.18-.18-24.95-.19-49.9-.24-74.85,0-.91-.47-1.99.43-2.76,2.31.86,4.51,1.85,6.8,2.5,15.78,4.48,31.75,7.56,48.17,8.96,20.96,1.8,41.19-.73,60.75-8.05,19.93-7.46,35.66-20.87,49.28-36.88,10.39-12.21,19.03-25.66,27.15-39.46,1.18-2,1.1-2.69,3.63-2.11,2.97.67,5.88-.31,8.77-.92,8.32-1.77,15.56-5.36,16.58-14.64.13-1.15.89-1.23,1.7-1.57,13.83-5.69,26.6-13.34,37.55-23.41,10.64-9.78,22.52-16.47,36.31-20.71,12.02-3.69,21.4-11.53,27.67-22.64,4.98-8.82,3.43-19.27-4.07-26.02-2.49-2.24-2.99-3.48-.75-6.43,9.08-11.97,6-24.39-7.43-30.7-2.13-1-2.11-1.68-.98-3.38,2.63-3.97,5.68-7.79,6.34-12.65.61-4.44-.4-8.96-2-13.09-2.52-6.51-8.07-11.25-14.91-12.81-7.9-1.8-17.24.53-23.05,6.29-4.23,4.16-8.71,8.24-12.05,13.18-.27.4-.67,1.45-1.3.97-1.13-.88.48-1.82.63-2.82.57-1.47,1.25-2.91,1.7-4.42,2.41-8.16,6.43-15.94,4.94-24.96-1.53-9.2-6.39-15.12-15.46-17.58-8.74-2.37-16.17-.51-22.16,6.47-6.68,7.78-10.36,17.23-14.48,26.38-10.05,22.29-19.82,44.69-29.93,67.56-.58-1.39-.9-2.17-1.24-2.95-4.24-9.76-3.55-20.45-5.77-30.59-2.64-12.04-7.92-21.73-20.51-26.04-3.8-1.3-7.38-.33-11.04-.58-6.36-.43-9.78,2.4-10.23,8.75-.46,6.49.13,12.93,1.25,19.33,2.44,13.95,3.75,27.91.65,41.97-.95,4.33-1.39,8.78-1.92,13.19-1.13,9.42.71,18.65,1.92,27.91.23,1.76.23,2.95-1.3,4.09-6.61,4.94-7.83,11.78-6.18,19.29,1.38,6.3,4.88,12.31,8.59,17.51,1.45,2.02,3.01,4.42,4.9,6.05,1.31,1.14,3.45,2.06,2.78,4.23-.82,2.67-2.66,5.34-4.22,7.91-23.96,39.44-60.88,56.67-105.15,60.92-12.47,1.2-25.03.53-37.54-.68-3.78-.36-4.96-1.28-4.95-5.29.16-92.6.09-185.2.28-277.81.02-8.49-2.86-15.48-8.02-21.69-5.23-6.3-12.02-10.83-20.3-10.93-31.29-.35-62.58,1.2-93.87.11l-26.97-.08c-7.64.15-15.27.4-22.91.42-33.31.06-66.62.12-99.94.05-39.22-.08-78.45.39-117.67-.39l-2.74-.07c-31.29.19-62.57.27-93.85.66-5.47.07-10.61,2.12-15.11,5.61-9.36,7.27-12.85,17.5-12.89,28.52-.28,70.36-.17,140.72-.15,211.08.01,37.77.11,75.55.22,113.32,0,1.56-.45,2.63-1.4,3.85-13.71,17.55-20.7,37.7-22.07,59.74-1.7,27.26,2.34,53.92,9.84,80.06,1.16,4.05.2,5.12-3.59,5.83-9.9,1.85-18.63,6.36-25.11,14.06-11.75,13.95-22,28.86-26.46,46.99-1.6,6.51-5.37,11.67-10.29,16.15-6.08,5.53-12.79,10.34-18.43,16.35-10.14,10.83-16.72,23.4-18.25,38.29-.84,8.2,2.6,12.97,10.16,16.02,5.97,2.41,11.27.56,16.67-1.52.35-.11.87-.41,1.02-.28.47.41.27.95-.03,1.43-1.54,6.77-2.4,13.56-1.46,20.53.96,7.09,3.66,13.08,10.2,16.6,6.57,3.53,13.62,3.68,20.52,1.32,3.26-1.12,3.72-.05,3.74,2.65.01,1.29.16,2.6.41,3.86,2.92,14.65,17.15,22.23,31.97,15.14,2.73-1.31,5.15-2.86,7.27-4.62ZM519.15,649.99c0,9.17-.07,18.33-.11,27.5,0,2.02-.05,4.04-.09,6.06-.02,1.03-.04,2.07-.05,3.1-.01.91.16,1.89-.31,2.69-1.65,2.85-5.53,2.88-8.3,3.67-3.57,1.02-7.47,2.51-10,5.36-2.89,3.26-2.73,9.71-1.52,13.68.92,3.03,2.85,5.66,3.5,8.78.74,3.59.98,7.38,1.14,11.04.32,7.41-.16,14.83-.6,22.23-.87,14.81-3.53,29.49-3.53,44.35,0,7.91,4.31,25.26-6.41,25.66-11.85.44-6.61-22.28-6.93-30.28-.7-17.74-.92-35.82-2.53-53.37-.55-5.94-.69-12.89.06-18.76.87-6.77,2.56-12.68.97-19.59-1.26-5.44-3.12-7.79-8.5-8.84-.24-.05-.49-.08-.73-.11-2.89-.34-6.77.89-9.38-.76-1.93-1.22-1.92-3.17-1.93-5.2-.01-2.49-.04-4.98-.03-7.47.03-10.4.07-20.8.07-31.21v-98.86c0-4.64,6.05-3.46,9.43-3.46h14c5.11,0,10.21,0,15.32,0,4.56,0,9.09-.37,13.63.17,3.82.45,2.82,5.86,2.82,8.61v95.02Z"/>
    <path class="cls-4" d="M183.64,626.2c1.65-.36,3.3-.72,4.95-1.08.89.43,1.21,1.18,1.18,2.12-12.71,5-22.47,13.46-28.52,25.66-7.61,15.33-7.36,31.49-3.3,47.68.99,3.95,2.35,8.63,5.86,10.84,7.12,4.49,14.21,9.19,22.52,11.55,7.74,2.2,15.5,4.18,23.52,5.11-10.17,1.58-19.88-.72-29.31-3.59-2.07,7.96-4.19,15.7-6.07,23.5-3.87,16.09-6.92,32.31-6.43,48.97.3,10.36,7.62,16.2,17.76,14.43,9.25-1.62,14.52-7.53,17.61-15.87,3.71-10.02,4.83-20.64,6.98-31.02,3.7-17.84,5.76-36.02,10.64-53.61,1.1-3.95.39-5.52-3.05-7.46-15.21-8.56-23.68-21.33-23.36-39.23,1.02-.15.92-1.75,2.13-1.65.22.98.52,1.95.66,2.94,1.66,12.09,6.23,22.77,15.95,30.53,5.02,4,10.4,7.89,18.12,7.32-6.84-10.57-2.89-20.55.25-30.35,3.12-9.73,8.57-18.16,15.88-25.28-3.82,5.92-6.53,12.39-9.46,18.71-3.67,7.93-6.1,16.48-4.02,25.03,2.75,11.31,7.67,21.96,13.91,31.85,3.02,4.78,9.52,6.69,14.9,5.24,2.31-.62,3.13-1.69,2.69-3.97-2.56-13.21-3.23-26.59-2.83-39.98.44-15.03-4.26-27.95-14.22-39.07-1.39-1.55-2.44-3.4-2.61-5.35-.32-3.72-2.3-6.03-5.31-7.77,1.48-.37,2.42-1.24,2.61-2.81,1.13.33,2.13,1.58,3.47.22,1.22-1.26,1.02-2.76.61-4.03-.55-1.68-2.19-2.68-3.63-3.55-6.24-3.78-13.17-5.86-20.26-6.99-3.37-.54-7.1-1.28-10.48.62-11.43-1.15-21.3,2.53-30.06,9.68-.57.37-1.15.73-1.72,1.1.94.64,1.77.6,2.45-.4ZM940.12,351.74v.07c2.73.47,3.33-1.42,3.13-3.32-.27-2.46-2.11-3.6-4.57-3.59-3.72.01-7.43.05-11.13-.48-17.47-2.51-33.05-9.05-46.01-21.27-3.6-3.99-6.21-8.6-8.25-14.01-1.95,3.77-1.2,6.69.49,9.52-.76,3.06.45,5.65,2.18,7.95,2.75,3.68,5.72,7.21,8.59,10.8,1.25,2.88,3.66,4.74,6.04,6.52,12.65,9.45,27.06,12.53,42.55,11.27,2.05-.17,4.34-.44,5.63-2.56.69.07,1.31.03,1.36-.89ZM595.43,820.98c-18.17.06-36.34.07-54.51.19-9.08.06-18.17.36-27.25.5-2.06.03-3.58.28-3.78,2.93-.25,3.23,2.08,2.61,3.72,2.68,5.47.23,10.96.27,16.44.38,34.75.71,69.47-1.34,104.21-.92.48-.02.95-.04,1.43-.06,4.92-.06,9.95.81,14.72-1.83-3.95-.11-7.36-2.22-11.24-2.28-11.31-.18-22.63-.41-33.94-.62-3.26-.32-6.52-.64-9.79-.97ZM218.89,606.94c4.18-.49,8.28,1.75,12.69.64-1.05-3.8-3.12-6.76-4.16-10.24-3.66-12.25-5.52-24.82-7.75-37.36-1.96-11.03-3.56-21.94-1.55-33.1.21-1.18-.32-1.94-1.55-2.13.64-2.02,2.43-2.74,4.12-3.51,1.44-.66,1.69-1.28,1.08-2.95-2.8-7.6-3.86-15.56-4.64-23.6-.6-6.2-.99-12.36.29-19.23-4.17,4.21-7.2,8.09-9.16,12.84-5.67,13.73-8.39,28.14-8.89,42.84-.8,23.5,4.42,46.23,10.18,68.82,1.85,7.27,1.97,7.24,9.35,6.98ZM740.18,423.6c-3.26-.51-6.51-1.03-9.78-1.52-4.54-.68-9.07-1.43-13.63-1.95-2.11-.24-4.66-.43-5.27,2.41-.61,2.79,1.77,3.65,3.74,4.48,1.72.72,3.53,1.23,5.34,1.7,5.28,1.36,10.64,2.43,15.86,4,16.12,4.83,32.57,8.17,49.26,9.73,17.59,1.64,35.05-.27,51.92-5.88,17.09-5.68,31.49-15.4,44.16-28.28,12.44-12.66,22.11-27.12,31.03-42.26,1.46-2.48,1.19-3.38-1.51-4.25-2.92-.93-5.78-1.73-8.87-1.45-4.42-1.72-8.94-3.23-12.87-5.97-1.07-.75-1.55-.83-2.19.56-1.98,4.34-4.91,8.11-7.58,12.03-15.68,22.96-36.48,39.47-62.84,48.38-24.89,8.42-50.75,9.46-76.77,8.28ZM528.28,712.88c4.29-.35,8.59-.93,12.89-.99,3.13-.04,4.48-1.02,4.28-4.27-.33-5.31-1.06-10.71-.48-15.94,1.21-10.84,1.48-21.75,1.98-32.6.74-15.93,1.24-31.9,1.7-47.85.53-18.41,1.47-36.81,1.89-55.22.24-10.44.08-10.47-10.53-10.43-3.44.01-7.72-.96-10.04.71-1.53,1.1-.14,6.11-.25,9.37-.52,15.96-1.27,31.91-1.62,47.87-.52,23.48.35,46.98-.84,70.46-.57,11.22-.12,22.49-.1,33.74,0,1.56-.32,3.19.63,4.64-.13.2-.42.48-.37.58.3.54.58.18.85-.09ZM935.89,303.22c-.11-9.38-.87-18.67-3.58-27.71-2.05-6.83-4.81-13.6-10.24-18.1-3.12-2.59-4.36-5.34-5.31-8.72-.7-2.49-1.07-5.07-1.78-7.55-3.55-12.31-6.23-24.9-11.93-36.54-4.06-8.29-10.86-12.34-19.63-13.56-3.2-.45-5.41.55-6.02,4.35-.91,5.74.6,11.15,1.72,16.58,3.18,15.49,4.34,30.88.6,46.52-2.63,10.97-3.48,22.14.69,33.08.83,2.17,3,4.49-1.16,5.87-.74.25-1.1,2.23-1.29,3.47-1.39,8.84,1.77,16.02,8.15,22.01,9.49,8.91,20.98,14.13,33.38,17.17,7.77,1.91,15.68,2.9,23.9.92,15.74-3.8,28.77-12.64,41.03-22.27,13.38-10.51,27.33-19.27,43.39-25.11,8.7-3.17,15.9-9.29,20.17-18.02,3.02-6.18,2.5-11.87-2.22-17.2-1.8-2.04-2.71-2.11-4.73-.29-4.55,4.11-8.62,8.88-14.45,11.37-9.9,4.23-19.79,8.48-29.71,12.66-.8.34-1.76,1.12-2.77.09.55-1.57,2.49-2.43,2.18-4.47-1.01-6.7-2.51-13.23-5.9-19.21-6.39-11.27-16.19-18.97-26.79-25.85,1.11-.33,1.86-1.08,2.45-2.03,1.81.61,2.01-1.01,2.74-1.94,7.55-9.63,12.38-20.72,16.82-31.96,3.74-9.47,8.12-18.8,9.1-29.13.79-8.25-2.44-13.22-9.8-15.63-7.23-2.36-12.32-.39-16.77,6.59-3.71,5.82-6.73,12.03-9.73,18.23-11.06,22.81-19.65,46.78-32.15,68.91-1.83,3.24-1.48,5.54.43,8.5,9.67,14.96,12.91,31.4,10.76,49l-1.53-.02ZM475.34,816.69c-1.81-4.14-3.12-7.63-4.82-10.92-8.92-17.24-22.04-29.59-41.74-32.65-20.81-3.24-40.72,1.14-59.7,9.82-14.67,6.7-22.47,19.4-28.94,33.76h135.2ZM513.48,816.32c21.44,0,42.89.28,64.33-.08,21.48-.36,42.85,2.4,64.72,2.11-4.33-13.83-11.56-25.38-23.57-32.7-14.35-8.75-30.5-12.43-47.31-12.48-28.35-.09-48.52,15.44-58.17,43.15ZM450.21,607.14c.65-5.9-.87-13.03-.91-20.22-.04-7.32-.02-14.72-1.05-21.94-.77-5.43-.09-10.9-1.26-16.3-.56-2.61-1.57-3.23-3.96-3.13-3.88.15-7.8.25-11.67-.04-3.96-.29-4.94,2.03-4.46,5,.64,3.95.6,7.93,1.06,11.84,2.23,19,1.91,38.12,2.88,57.18.6,11.9.71,23.82,1.76,35.72,1.57,17.83,2.47,35.72,3.51,53.6.16,2.79,1.12,3.79,3.86,3.84,4.01.07,8.02-.25,12.04.57,2.49.51,3.72-1.25,3.23-3.76-2.76-14.16-2.31-28.57-3.16-42.86-1.16-19.36-1.27-38.79-1.87-59.49ZM988.95,249.54c1.1-1.3,2.06-2.79,3.34-3.88,9.54-8.12,18.81-16.67,29.31-23.49,7.57-4.91,12.66-11.56,17.23-18.92,4.4-7.08,1.12-19.75-9.33-21.24-8.99-1.28-15.56,2.46-21.27,8.83-12.01,13.39-22.59,28.05-35.81,40.35-1.56,1.45-.71,2.07.45,2.87,6.24,4.27,11.19,9.87,16.08,15.48ZM477.77,807.79c-.99-15.04-3.17-29.59-4.78-44.19-1.61-14.66-.26-29.48,1.57-44.58-8.94,3.16-17.9,5.08-26.33,8.78-3.13,1.37-4.53,2.97-4.25,6.26.11,1.28-.24,2.62-.06,3.88.93,6.34-1.02,10.4-7.36,13.3-6.48,2.97-11.94,7.96-17.99,12.83,21.98,3.16,40.43,7.57,59.2,43.72ZM510.3,811.32c4.14-11.75,10.57-21.89,19.39-30.5,9.16-8.93,20.94-12.36,33.46-15.24-6.36-5.56-12.31-10.26-18.66-14.39-2.74-1.78-3.86-3.96-3.85-7.12.01-4.03-.35-8.06-.37-12.09-.01-1.77-.34-3.09-2.21-3.6-8.94-2.44-17.88-4.87-27.51-7.49,4.62,30.55-.41,60.34-.25,90.44ZM134.66,769.43c.08,15.21,8.1,20.64,22.14,19.04,2.03-.23,3.81-.75,3.93-3.59.86-20.73,6.88-40.41,12.58-60.14.35-1.23.48-1.58-.76-2.11-2.76-1.18-5.46-2.51-8.13-3.89-2.56-1.32-4.69-.99-6.45,1.33-3.14,4.12-6.4,8.15-9.39,12.38-7.83,11.1-14.02,22.85-13.92,36.97ZM149.95,680.63c-6.24,9.28-15.16,15.78-22.89,23.44-5.02,4.98-9.64,10.36-13.39,16.38-4.15,6.65-7.8,13.58-7.48,21.73.3,7.64,5.59,11.33,13.02,9.44,5.03-1.27,8.52-4.63,11.69-8.47,8.59-10.44,14.82-22.73,25.1-31.84.98-.87.66-1.73.03-2.66-5.71-8.48-6.22-18.05-6.09-28.03ZM997.09,277.6c9.27-5.88,18.28-10.3,27.1-15.07,2.02-1.09,4.31-1.8,5.87-3.58,5.12-5.86,10.4-11.61,14.48-18.29,4.87-7.96,3.25-14.51-4.56-19.56-1.72-1.11-3-1.12-4.66.05-14,9.89-27.11,20.93-40.8,31.21-1.05.79-1.93,1.55-1.23,3.2,2.88,6.85,5.05,13.86,3.81,22.03ZM403.2,765.96c3.3-.39,5.26-1.5,7.22-2.74,9-5.65,17.96-11.36,27.13-16.72,2.51-1.47,3.16-3.03,3.07-5.69-.19-5.98-.64-12.04,2.55-17.7-14.31-1.86-28.35-3.85-41.79-8.69.6,17.26,1.2,34.26,1.81,51.53ZM541.51,722.38c2.08,6.71,2.21,13.31,2.03,19.93-.07,2.69.74,4.44,3.19,5.95,6.37,3.93,11.94,9.04,18.85,12.29,3.53,1.66,5.42,6.4,10.67,5.09,1.51-.38,2.11-.34,2.19-1.99.71-15.65.67-31.34,2.31-46.95.25-2.37-.96-2.81-2.86-1.99-11.51,4.93-23.78,6.21-36.37,7.67ZM651.07,813.28c-.53-7.19-2.29-14.13-3.99-21.1-3.66-15.06-13.97-23.2-28.06-27.49-9.6-2.92-19.21-5.91-29.34-6.42-1.24-.06-3.73-1.95-3.41.93.29,2.59-3.42,6.49,1.84,7.84,4.01,1.03,8.11,1.74,12.12,2.79,14.18,3.71,26.91,9.85,36.01,21.93,5.14,6.82,8.63,14.52,11.95,22.31.54,1.28.76,3.41,2.27,3.17,2.16-.34.39-2.32.64-3.54.03-.14-.02-.29-.03-.43ZM359.82,821.18v.37c-5.33,0-10.67.17-15.98-.08-2.2-.1-2.75.46-2.76,2.52,0,1.92-.06,3.11,2.58,3.09,8.06-.03,16.12.41,24.19.43,35.58.1,71.16.15,106.74.1,1.42,0,4.21,1.2,3.92-2.24-.2-2.4-.53-4.38-3.96-3.94-2.82.35-5.74-.24-8.61-.24-35.37-.02-70.74-.02-106.12-.02ZM340.56,800.45c2.44-1.41,2.93-3.28,3.81-4.82,5.71-9.91,13.54-17.21,24.44-21.3,8-3,16.18-5.25,24.48-6.98,3.06-.64,3.41-1.81,2.93-4.24-.16-.85-.43-1.73-.34-2.56.34-3.15-1.06-3.01-3.53-2.4-6.13,1.5-12.37,2.55-18.52,3.94-8.22,1.86-15.85,4.93-21.38,11.72-6.21,7.64-8.25,17.1-11.89,26.64ZM414.07,706.1c3.74,1.21,7.46,2.5,11.23,3.58,1.23.35,3.23,1.55,3.79.04.77-2.06.79-4.62-.14-6.73-.6-1.36-2.26-.65-3.52-.49-3.84.46-7.25,2.62-11.37,3.61ZM567.54,706.11c-4.42-.99-8.6-2.61-12.87-3.77-2.99-.81-2.5,2.14-2.3,3.76.16,1.32-1.03,4.13,1.92,3.67,4.42-.69,9.05-.68,13.25-3.65ZM506.95,706.75c3.99,1.51,7.15,2.73,10.33,3.87.94.34,2.26.6,2.63-.55.66-2.04.66-4.24.01-6.31-.31-1-1.46-.82-2.25-.57-3.33,1.05-6.64,2.19-10.73,3.56ZM464.2,709.36c2.8-.63,5.59-1.27,8.39-1.88.71-.16,1.55-.24,1.53-1.16-.02-.81-.76-1.17-1.47-1.33-2.8-.65-5.59-1.31-8.41-1.86-1.94-.38-3,.37-2.92,2.54.07,1.97-.11,3.97,2.88,3.7Z"/>
    <path class="cls-2" d="M574.55,467.28s.08.1.12.15h0c-.04-.05-.09-.1-.13-.15ZM574.55,467.28s.08.1.12.15h0c-.04-.05-.09-.1-.13-.15ZM573.25,107.68c-3.02.09-6.05.26-9.07.25-67.43-.06-134.87-.15-202.3-.15l-38.77-.22c-23.78.72-47.59.68-71.38.41-13.87-.16-22.78,7.3-26.49,18.37-1.83,5.43-.69,10.84-.72,16.23-.2,49.89-.34,99.79-.32,149.68.02,69.08.16,138.15.33,207.23.02,7.54,1.65,14.86,4.96,21.67,4.9,10.1,12.07,16.71,24.3,16.7,87.56-.13,175.11-.07,262.67-.09,36.21,0,72.41-.06,108.62-.1-.41-2.18,1.14-2.11,2.61-2.4,20.19-4.02,37.62-12.88,51.17-28.81,5.42-6.38,11.18-12.43,14.24-20.41,2.28-5.94,3.8-12.02,3.98-18.45.43-16.57.59-33.13.57-49.7-.1-72.94.03-145.88,0-218.81,0-14.99.04-30-.73-44.96-.75-14.75-4.04-28.78-15.66-39.46-2.92-2.68-6.37-4.32-9.63-6.36-1.56-.15-3.13-.44-4.69-.42-14.77.14-29.56.34-44.33.52l-49.37-.73ZM443.38,266.05c.44-2.43.88-4.87,1.33-7.31,1.77,3.58,1.53,7.18,1.29,10.78.36,7.14-1.04,14.03-3,20.83-.16.55-.32,1.11-.49,1.66.11.69.13,1.35-.55,1.8-.38,1.01.14,2.35-1.11,3.04l.11.25c-.16.86.05,1.86-.99,2.35l.1.28c-1.21,4.87-3.21,9.43-5.47,13.88-4.24,10.18-11.6,18.09-18.98,25.98-1.57,1.68-2.27,2.33-.23,4.79,6.74,8.13,14.7,14.98,22.04,22.47,1.05,1.07,2.6,1.85,2.7,3.73-2.26.68-4.06.15-5.95-1.27-11.58-8.66-22.21-18.28-31.07-29.79-1.18-1.53-1.2-2.34.25-3.46,22.74-17.48,33.21-41.96,39.36-68.92.09-.4.42-.74.64-1.1ZM396.93,297.68c-5.43,8.42-12.55,14.88-22.64,16.71-13.01,2.36-23.12-3.2-30.62-13.45-7.37-10.07-10.2-21.75-10.35-35.19.45-16.29,5.2-31.78,18.59-43.79,10.7-9.61,28.97-9.19,39.35.69,8.25,7.87,11.82,17.88,13.73,28.6,2.93,16.39,1.19,32.09-8.06,46.43ZM302.81,310.68c-15.11-18.48-20.2-39.72-18.05-63.3,1.94-21.32,10.42-39.3,25.52-54.17,13.68-13.47,30.15-20.49,49.58-18.81,15.35,1.33,27.86,8.61,37.74,20.26,7.54,8.87,13.42,18.79,17.18,29.88.27.85.54,1.7.81,2.55.1.55.2,1.09.3,1.64.49,1.76.99,3.53,1.48,5.29.05.57.1,1.14.16,1.71.1.41.18.81.28,1.22,2.85,11.39,2.3,22.74-.96,34.06,0-2.3.03-4.6,0-6.9-.3-20.26-4.83-39.42-17.43-55.59-17.96-23.05-48.06-24.41-70.33-5.74-7.02,5.88-12.38,13.12-17.03,20.93-.55.93-1.1,1.86-1.65,2.8,0,0,.04,0,.08,0h.03c-.38.81-.76,1.61-1.14,2.41-.02.68-.1,1.33-.8,1.7-.63,1.46-1.26,2.93-1.89,4.39l.1-.07c-1.23,4.3-2.45,8.6-3.68,12.91-.34,2.04-.68,4.09-1.01,6.13-.23,3.15-.47,6.3-.71,9.44,0,2.62,0,5.23,0,7.84.03,1.15.07,2.3.1,3.46.53.8.89,1.64.71,2.63.23,5.03,1.9,9.77,2.75,14.68l.02.34c.62,1.92,1.22,3.85,1.84,5.77,5.14,11.71,11.91,22.24,21.83,30.54.29.24.36.72,1.01,2.1-10.38-5.87-19.75-11.45-26.82-20.1ZM555.86,265.45c-.18-16,4.1-30.4,16-41.79,13.51-12.94,35.98-10.35,46.19,5.28,7.31,11.19,11.11,25.73,10.09,40.58-.4,10.8-3.8,22.08-11.85,31.86-14.99,18.19-36.75,13.15-48.33-.34-8.75-10.19-11.94-22.45-12.1-35.59ZM574.67,467.42h0c-.04-.05-.09-.1-.13-.15.03.04.08.1.12.15ZM574.55,467.28s.08.1.12.15h0c-.04-.05-.09-.1-.13-.15Z"/>
    <path class="cls-2" d="M963.77,232.72c10.6,6.88,20.41,14.58,26.79,25.85,3.39,5.99,4.89,12.51,5.9,19.21.31,2.03-1.63,2.9-2.18,4.47,1,1.04,1.97.25,2.77-.09,9.92-4.18,19.81-8.43,29.71-12.66,5.83-2.49,9.9-7.26,14.45-11.37,2.02-1.82,2.92-1.74,4.73.29,4.72,5.33,5.24,11.02,2.22,17.2-4.26,8.73-11.47,14.86-20.17,18.02-16.06,5.85-30.01,14.6-43.39,25.11-12.26,9.63-25.29,18.47-41.03,22.27-8.22,1.99-16.13.99-23.9-.92-12.4-3.04-23.89-8.26-33.38-17.17-6.38-5.99-9.54-13.17-8.15-22.01.19-1.24.55-3.22,1.29-3.47,4.16-1.39,1.99-3.7,1.16-5.87-4.17-10.94-3.31-22.1-.69-33.08,3.74-15.64,2.58-31.03-.6-46.52-1.11-5.43-2.63-10.85-1.72-16.58.6-3.8,2.82-4.8,6.02-4.35,8.78,1.22,15.57,5.27,19.63,13.56,5.69,11.64,8.37,24.22,11.93,36.54.72,2.48,1.09,5.06,1.78,7.55.95,3.37,2.19,6.13,5.31,8.72,5.43,4.51,8.19,11.28,10.24,18.1,2.71,9.04,3.47,18.33,3.58,27.71-.13,2.72-.26,5.44-.39,8.15.32.02.63.05.95.07.32-2.74.65-5.47.97-8.21,2.15-17.59-1.09-34.04-10.76-49-1.91-2.96-2.26-5.26-.43-8.5,12.5-22.13,21.09-46.1,32.15-68.91,3.01-6.2,6.02-12.4,9.73-18.23,4.44-6.98,9.54-8.95,16.77-6.59,7.36,2.4,10.59,7.37,9.8,15.63-.99,10.33-5.36,19.66-9.1,29.13-4.44,11.24-9.27,22.33-16.82,31.96-.73.93-.93,2.55-2.74,1.94-6.36-3.67-13.25-4.7-20.53-4.05,6.5.7,12.23,3.58,18.09,6.08Z"/>
    <path class="cls-3" d="M625.07,538.15c-.73-.03-1.45-.05-2.18-.07-2.1-.06-5.13-.22-8.1-.39,1.71-.23,3.42-.53,5.09-.98,4.03-1.08,8.13-1.91,12.14-3.06,1.22-.35,2.4-.85,3.63-1.22.26-.08.52-.15.78-.22,7.23-2.02,14.31-4.69,20.96-8.18,6.2-3.25,11.51-7.29,16.5-12.2,1.74-1.71,3.41-3.5,4.99-5.36,5.42-6.37,11.17-12.44,14.24-20.41,2.28-5.94,3.8-12.01,3.97-18.44.43-16.57.59-33.13.57-49.71-.09-72.94.03-145.87-.01-218.81,0-14.99.05-30-.72-44.95-.76-14.75-4.04-28.79-15.66-39.46-2.92-2.68-6.37-4.32-9.63-6.36,9.9-.92,20-1.69,29.7-.15,12.77,2.03,22.53,14.68,20.6,28.06-1.16,8.06-.45,16.4-.45,24.62.02,76.56.06,153.11.1,229.67,0,6.78-.13,13.56.12,20.32.1,2.83-.93,3.39-3.45,3.35-3.18-.05-6.36.43-9,2.43-3.47,2.62-5.47,6.2-4.65,10.49.79,4.12,4.7,5.81,8.12,6.79,8.7,2.51,8.78,2.26,8.76,11.12-.04,24.8,0,49.59-.19,74.39-.08,10.25-11.13,20.35-21.09,19.2-4.48-.52-8.87-.4-13.32-.36-12.36.11-24.73.23-37.09.27-5.86.02-11.72.04-17.58-.12-2.38-.07-4.76-.17-7.14-.25Z"/>
    <path class="cls-2" d="M240.85,632.39c3.01,1.74,4.99,4.06,5.31,7.77.17,1.95,1.22,3.8,2.61,5.35,9.96,11.12,14.67,24.04,14.22,39.07-.4,13.39.27,26.77,2.83,39.98.44,2.27-.38,3.34-2.69,3.97-5.38,1.46-11.88-.45-14.9-5.24-6.25-9.89-11.16-20.54-13.91-31.85-2.08-8.55.34-17.1,4.02-25.03,2.93-6.32,5.65-12.79,9.46-18.71-7.3,7.12-12.75,15.55-15.88,25.28-3.15,9.8-7.09,19.78-.25,30.35-7.73.57-13.11-3.31-18.12-7.32-8.43-6.73-13.08-16.21-15.32-26.59-1.56-7.24.24-21.98-1.17-22.05-1.18-.46-1.65,3.13-1.77,4.53-.42,5.07-1.26,10.02-.73,15.05s1.38,10.01,3.23,14.61c1.66,4.15,4.05,7.97,7.01,11.32,3.78,4.29,8.42,7.76,13.39,10.55,3.45,1.94,4.15,3.51,3.05,7.46-4.89,17.58-6.95,35.76-10.64,53.61-2.15,10.38-3.27,21-6.98,31.02-3.09,8.34-8.36,14.25-17.61,15.87-10.14,1.77-17.46-4.06-17.76-14.43-.48-16.67,2.56-32.88,6.43-48.97,1.88-7.8,4.01-15.54,6.07-23.5,9.43,2.87,19.14,5.17,29.31,3.59-8.03-.93-15.78-2.91-23.52-5.11-8.31-2.36-15.4-7.06-22.52-11.55-3.51-2.21-4.87-6.89-5.86-10.84-4.05-16.19-4.31-32.35,3.3-47.68,6.05-12.2,15.81-20.66,28.52-25.66.52-.12,1.05-.23,1.57-.35,1.15-.29,2.29-.58,3.44-.87,2.11-.24,4.21-.53,6.32-.71,13.82-1.18,26.9,1.8,39.57,7.05Z"/>
    <path class="cls-2" d="M475.54,816.7h-135.2c6.47-14.35,14.27-27.05,28.94-33.76,18.99-8.67,38.89-13.05,59.7-9.82,19.7,3.07,32.82,15.41,41.74,32.65,1.7,3.29,3.01,6.78,4.82,10.92Z"/>
    <path class="cls-2" d="M513.68,816.33c9.65-27.71,29.82-43.24,58.17-43.15,16.8.05,32.96,3.73,47.31,12.48,12.01,7.32,19.24,18.87,23.57,32.7-21.87.29-43.24-2.46-64.72-2.11-21.44.36-42.89.08-64.33.08Z"/>
    <path class="cls-1" d="M527.99,712.4c-.95-1.44-.63-3.07-.63-4.64-.02-11.25-.47-22.52.1-33.74,1.19-23.49.31-46.98.84-70.46.36-15.96,1.1-31.92,1.62-47.87.11-3.26-1.28-8.27.25-9.37,2.32-1.67,6.59-.7,10.04-.71,10.62-.04,10.78-.01,10.53,10.43-.43,18.41-1.36,36.81-1.89,55.22-.46,15.95-.96,31.91-1.7,47.85-.5,10.85-.77,21.75-1.98,32.6-.58,5.23.15,10.63.48,15.94.2,3.25-1.15,4.23-4.28,4.27-4.3.05-8.59.63-12.89.99-.16-.16-.32-.33-.48-.49Z"/>
    <path class="cls-1" d="M450.41,607.15c.6,20.71.71,40.13,1.87,59.49.86,14.29.41,28.7,3.16,42.86.49,2.51-.74,4.27-3.23,3.76-4.03-.82-8.03-.5-12.04-.57-2.74-.05-3.7-1.05-3.86-3.84-1.03-17.87-1.93-35.77-3.51-53.6-1.05-11.91-1.16-23.82-1.76-35.72-.97-19.05-.65-38.17-2.88-57.18-.46-3.91-.42-7.89-1.06-11.84-.48-2.97.51-5.29,4.46-5,3.87.29,7.78.19,11.67.04,2.39-.09,3.4.52,3.96,3.13,1.16,5.4.49,10.87,1.26,16.3,1.03,7.22,1.01,14.62,1.05,21.94.04,7.2,1.56,14.32.91,20.22Z"/>
    <path class="cls-1" d="M902.62,360.33c3.08-.28,5.95.51,8.87,1.45,2.7.86,2.97,1.77,1.51,4.25-8.92,15.14-18.58,29.6-31.03,42.26-12.67,12.88-27.07,22.6-44.16,28.28-16.87,5.61-34.33,7.52-51.92,5.88-16.69-1.56-33.15-4.9-49.26-9.73-5.22-1.56-10.58-2.64-15.86-4-1.81-.46-3.62-.98-5.34-1.7-1.97-.82-4.34-1.69-3.74-4.48.62-2.84,3.16-2.65,5.27-2.41,4.56.52,9.09,1.27,13.63,1.95,3.26.49,6.52,1.01,9.78,1.52.41,3.3,2.86,3.19,5.32,3.33,4.01.24,8.08.31,11.98,1.12,16.81,3.48,33.73,5.29,50.84,3.11,6.93-.89,13.93-1.2,20.76-3.16,9.57-2.74,17.68-7.84,25.6-13.6,14.86-10.8,27.89-23.48,39.14-37.94,3.74-4.8,7.6-9.77,8.61-16.13Z"/>
    <path class="cls-3" d="M902.62,360.33c-1.01,6.36-4.87,11.33-8.61,16.13-11.25,14.46-24.28,27.14-39.14,37.94-7.92,5.76-16.03,10.85-25.6,13.6-6.84,1.96-13.83,2.28-20.76,3.16-11.37,1.45-22.88,1.38-34.28.39-5.78-.5-11.54-1.25-17.28-2.16-4.97-.79-10.92-1.1-15.55-3.07-3.1-1.32-2.81-3.09-3.67-3.13,26.02,1.17,54.52.55,79.41-7.87,26.35-8.91,47.16-25.42,62.84-48.38,2.67-3.92,5.6-7.69,7.58-12.03.63-1.39,1.12-1.3,2.19-.56,3.93,2.75,8.46,4.25,12.87,5.97Z"/>
    <path class="cls-2" d="M989.14,249.55c-4.89-5.61-9.84-11.21-16.08-15.48-1.16-.79-2.01-1.42-.45-2.87,13.22-12.31,23.8-26.96,35.81-40.35,5.71-6.37,12.28-10.11,21.27-8.83,10.46,1.49,13.73,14.16,9.33,21.24-4.58,7.36-9.66,14.01-17.23,18.92-10.5,6.81-19.77,15.36-29.31,23.49-1.29,1.09-2.24,2.58-3.34,3.88Z"/>
    <path class="cls-2" d="M477.97,807.8c-18.78-36.15-37.23-40.56-59.2-43.72,6.05-4.87,11.51-9.86,17.99-12.83,5.07-2.32,6.95-5.83,8.23-11.01.34-1.37.29-2.68.33-4.09.05-1.54-.22-3.08-.07-4.62.2-2.1,1.29-2.9,3.18-3.73,8.44-3.7,17.39-5.62,26.33-8.78-1.83,15.09-3.18,29.92-1.57,44.58,1.61,14.61,3.8,29.15,4.78,44.19Z"/>
    <path class="cls-2" d="M510.49,811.33c-.16-30.11,4.86-59.89.25-90.44,9.63,2.62,18.57,5.05,27.51,7.49,1.87.51,2.2,1.83,2.21,3.6.01,2.15.12,4.3.22,6.45.08,1.71-.21,3.58.09,5.24.98,5.48,4.78,7.97,8.97,10.99,2.3,1.66,4.55,3.38,6.76,5.16,1.18.95,2.35,1.92,3.51,2.9.44.37,2.9,2.97,3.34,2.87-12.52,2.88-24.3,6.31-33.46,15.24-8.82,8.61-15.25,18.75-19.39,30.5Z"/>
    <path class="cls-2" d="M134.85,769.44c-.1-14.12,6.09-25.87,13.92-36.97,2.99-4.23,6.25-8.26,9.39-12.38,1.77-2.32,3.89-2.65,6.45-1.33,2.67,1.38,5.37,2.7,8.13,3.89,1.23.53,1.11.88.76,2.11-5.7,19.73-11.72,39.41-12.58,60.14-.12,2.83-1.9,3.35-3.93,3.59-14.03,1.6-22.06-3.83-22.14-19.04Z"/>
    <path class="cls-2" d="M150.14,680.64c-.14,9.98.37,19.55,6.09,28.03.63.93.95,1.79-.03,2.66-10.28,9.11-16.51,21.4-25.1,31.84-3.16,3.84-6.65,7.19-11.69,8.47-7.43,1.88-12.72-1.8-13.02-9.44-.32-8.15,3.33-15.08,7.48-21.73,3.75-6.02,8.37-11.4,13.39-16.38,7.73-7.66,16.64-14.16,22.89-23.44Z"/>
    <path class="cls-3" d="M219.09,606.95c-7.38.27-7.5.3-9.35-6.98-5.75-22.59-10.97-45.32-10.18-68.82.5-14.7,3.23-29.1,8.89-42.84,1.96-4.75,4.99-8.63,9.16-12.84-1.29,6.87-.89,13.02-.29,19.23.78,8.04,1.84,16,4.64,23.6.61,1.67.37,2.29-1.08,2.95-1.69.77-3.48,1.48-4.12,3.51-1.02,1.85-2.47,3.48-2.74,5.71-2.2,18.67-.73,37.28,1.34,55.83.78,6.93,2.45,13.77,3.71,20.65Z"/>
    <path class="cls-2" d="M997.28,277.61c1.25-8.17-.92-15.18-3.81-22.03-.69-1.65.18-2.41,1.23-3.2,13.69-10.28,26.8-21.32,40.8-31.21,1.66-1.17,2.94-1.17,4.66-.05,8.8,5.69,8.45,14.49,3.6,22.99-3.1,5.42-8.15,10.65-13.15,14.29-10.34,7.53-22.53,12.35-33.34,19.21Z"/>
    <path class="cls-2" d="M403.4,765.97c-.61-17.27-1.2-34.28-1.81-51.53,13.44,4.84,27.47,6.82,41.79,8.69-2.26,4.02-2.81,8.72-2.86,13.26-.04,4.07-.92,6.71-4.13,9.34-8.03,6.58-17,12.01-25.77,17.52-1.97,1.23-3.92,2.35-7.22,2.74Z"/>
    <path class="cls-2" d="M545.04,723.95c.25-1.12.66-2.02,2.02-2.19,3.57-.43,7.15-.88,10.7-1.47,6.94-1.14,13.83-2.8,20.32-5.58,1.9-.82,3.11-.38,2.86,1.99-1.63,15.61-1.6,31.3-2.31,46.95-.07,1.65-.68,1.61-2.19,1.99-2.83.71-4.99-.54-7.06-2.35-2.25-1.97-4.73-3.49-7.2-5.19-3.41-2.35-6.53-5.2-9.82-7.78-2.19-1.71-4.9-3.55-6.43-5.92-1.4-2.16-.86-5.27-1.06-7.7-.28-3.43-.97-7.74-.17-11.11.13-.56.22-1.12.33-1.64Z"/>
    <path class="cls-2" d="M651.26,813.29c.01.14.06.29.03.43-.25,1.22,1.52,3.19-.64,3.54-1.5.24-1.72-1.89-2.27-3.17-3.32-7.79-6.81-15.49-11.95-22.31-9.1-12.08-21.83-18.22-36.01-21.93-4.01-1.05-8.11-1.75-12.12-2.79-1.23-.32-2.55-.93-2.8-2.3-.2-1.1.29-2.25.59-3.29.35-1.19.44-2.05,1.75-2.49,2.28-.77,4.76-.54,7.09-.24,2.57.33,5.12.79,7.65,1.35,5.06,1.12,10.03,2.61,14.99,4.11.55.17,1.09.33,1.64.5,14.08,4.29,24.4,12.44,28.06,27.49,1.7,6.98,3.45,13.92,3.99,21.1Z"/>
    <path class="cls-2" d="M360.01,821.19c35.37,0,70.74,0,106.12.02,2.87,0,5.8.6,8.61.24,3.43-.43,3.76,1.54,3.96,3.94.29,3.44-2.51,2.24-3.92,2.24-35.58.04-71.16,0-106.74-.1-8.06-.02-16.13-.47-24.19-.43-2.64.01-2.59-1.17-2.58-3.09,0-2.06.56-2.63,2.76-2.52,5.32.25,10.65.08,15.98.08v-.37Z"/>
    <path class="cls-2" d="M634.45,826.75c-34.74-.41-69.47,1.63-104.21.92-5.48-.11-10.96-.15-16.44-.38-1.64-.07-3.96.55-3.72-2.68.2-2.64,1.73-2.89,3.78-2.93,9.08-.14,18.17-.44,27.25-.5,18.17-.13,36.34-.14,54.51-.19l9.79.97c11.31.21,22.63.44,33.94.62,3.88.06,7.29,2.18,11.24,2.28-4.76,2.64-9.8,1.76-14.72,1.83l-1.43.06Z"/>
    <path class="cls-1" d="M219.09,606.95c-1.26-6.88-2.94-13.71-3.71-20.65-2.08-18.56-3.54-37.16-1.34-55.83.26-2.23,1.71-3.86,2.74-5.71,1.23.19,1.76.95,1.55,2.13-2.01,11.16-.41,22.07,1.55,33.1,2.23,12.54,4.1,25.11,7.75,37.36,1.04,3.48,3.1,6.44,4.16,10.24-4.41,1.11-8.51-1.14-12.69-.64Z"/>
    <path class="cls-2" d="M340.76,800.46c3.64-9.54,5.67-19,11.89-26.64,5.52-6.79,13.16-9.85,21.38-11.72,6.16-1.4,12.39-2.44,18.52-3.94,1.71-.42,3.03-.7,3.76,1.14.66,1.64.46,3.6.29,5.31-.17,1.81-1.43,2.39-3.11,2.74-8.3,1.73-16.49,3.98-24.48,6.98-10.9,4.09-18.73,11.39-24.44,21.3-.88,1.53-1.38,3.41-3.81,4.82Z"/>
    <path class="cls-3" d="M884.73,337.42c-2.87-3.59-5.84-7.12-8.59-10.8-1.72-2.31-3.29-4.6-3.82-8.15-.4-4.05-.3-10.34,1.16-9.32,1,.7,6.78,14.12,8.25,14.01,12.96,12.23,28.54,18.77,46.01,21.27,3.71.53,7.41.49,11.13.48,2.46,0,4.3,1.14,4.57,3.59.21,1.89-.4,3.79-3.11,3.32-.83-1.51-2.26-1.53-3.74-1.59-17.39-.68-33.77-4.91-48.84-13.8-1.41-.84-2.67-1.38-3.01.98Z"/>
    <path class="cls-1" d="M884.73,337.42c.34-2.36,1.6-1.82,3.01-.98,15.06,8.9,31.45,13.13,48.84,13.8,1.48.06,2.91.07,3.74,1.59,0,0-.01-.07-.01-.07.01.73-.24,1.19-.7,1.49-1.75,1.59-4.24,1.8-6.29,1.97-15.49,1.26-29.89-1.82-42.55-11.27-2.38-1.78-4.79-3.64-6.04-6.52Z"/>
    <path class="cls-1" d="M226.1,622.25c-4.04-2.69-7.85-5.84-12.93-6.42,3.38-1.9,7.11-1.16,10.48-.62,7.1,1.14,14.03,3.22,20.26,6.99,1.45.87,3.09,1.87,3.63,3.55.41,1.27.61,2.78-.61,4.03"/>
    <path class="cls-3" d="M213.16,615.83c5.08.58,8.9,3.73,12.93,6.42-1.13.05-2.29.28-3.4.13-5.22-.75-10.53-.83-15.78-.42-5.03.4-9.76,1.96-14.75,2.6-1.87.24-3.88.79-5.69,1.35-1.2.37-2.58,1.07-3.84.55.31-2.01,4.53-4,6.19-5.01,2.43-1.48,5.01-2.73,7.69-3.68,5.29-1.87,11.07-2.58,16.66-1.94Z"/>
    <path class="cls-3" d="M414.26,706.12c4.12-.99,7.53-3.14,11.37-3.61,1.26-.15,2.92-.87,3.52.49.92,2.11.9,4.67.14,6.73-.57,1.52-2.56.32-3.79-.04-3.78-1.08-7.49-2.37-11.23-3.58Z"/>
    <path class="cls-3" d="M567.73,706.12c-4.2,2.97-8.83,2.96-13.25,3.65-2.95.46-1.76-2.35-1.92-3.67-.2-1.61-.69-4.57,2.3-3.76,4.28,1.16,8.45,2.79,12.87,3.77Z"/>
    <path class="cls-3" d="M507.15,706.76c4.09-1.37,7.39-2.51,10.73-3.56.79-.25,1.94-.43,2.25.57.65,2.06.65,4.27-.01,6.31-.37,1.16-1.69.89-2.63.55-3.18-1.15-6.34-2.37-10.33-3.87Z"/>
    <path class="cls-3" d="M464.4,709.37c-2.99.28-2.81-1.73-2.88-3.7-.08-2.17.98-2.91,2.92-2.54,2.82.55,5.61,1.21,8.41,1.86.71.16,1.46.52,1.47,1.33.02.91-.82,1-1.53,1.16-2.8.61-5.59,1.25-8.39,1.88Z"/>
    <path class="cls-1" d="M963.77,232.72c-5.86-2.5-11.59-5.38-18.09-6.08,7.28-.65,14.18.38,20.53,4.05-.59.95-1.34,1.7-2.45,2.03Z"/>
    <path class="cls-1" d="M937.62,303.25c-.32,2.74-.65,5.47-.97,8.21-.32-.02-.63-.05-.95-.07.13-2.72.26-5.44.39-8.15.51,0,1.02.01,1.53.02Z"/>
    <path class="cls-1" d="M1047.59,198.53c-.06.12-.12.25-.19.37.07-.11.14-.23.22-.34,0,0-.03-.03-.03-.03Z"/>
    <path class="cls-1" d="M528.47,712.89c-.26.27-.55.63-.85.09-.05-.09.24-.38.37-.58.16.16.32.33.48.49Z"/>
    <path class="cls-3" d="M639.69,133.64c-20.45-13.25-42.43-15-65.4-14.48,23.11-12.75,54.86-6.05,65.4,14.48Z"/>
    <path class="cls-3" d="M309.22,132.62c10.96-18.74,30.67-23.95,50.11-13.62-18.14-.68-34.21,4.55-50.11,13.62Z"/>
    <path class="cls-1" d="M596.72,439.25v.06l.09-.06h-.09ZM594.07,443.57l.04-.06h-.04v.06ZM592.65,445.55l.03-.08h-.06s.02.05.03.08ZM584.58,457.47s.06-.1.07-.1c-.03,0-.05,0-.07.02v.08ZM583.7,458.38l.12-.09s-.08.02-.11.03c0,.02,0,.04,0,.06ZM579.67,462.88s.03-.13.03-.13h-.05s.02.09.03.13Z"/>
    <path class="cls-4" d="M333.32,265.75c.45-16.29,5.2-31.78,18.58-43.79,10.71-9.61,28.98-9.19,39.35.7,8.25,7.87,11.82,17.87,13.74,28.6,2.93,16.38,1.18,32.09-8.06,46.42-5.44,8.43-12.54,14.88-22.64,16.71-13.02,2.36-23.12-3.2-30.62-13.44-7.38-10.08-10.2-21.75-10.35-35.19ZM382.45,250.49c6.68-.13,11.66-4.47,11.59-10.11-.08-7.71-6.79-15.14-13.41-14.85-5.99.26-10.07,5.6-9.88,12.91.19,7.41,4.83,12.18,11.7,12.05Z"/>
    <path class="cls-4" d="M628.13,269.51c-.39,10.81-3.79,22.08-11.85,31.86-15,18.19-36.75,13.16-48.33-.33-8.75-10.19-11.95-22.45-12.1-35.59-.19-16,4.1-30.4,16-41.79,13.51-12.94,35.98-10.34,46.19,5.28,7.31,11.19,11.11,25.72,10.09,40.57ZM603.95,250.48c6.54.01,11.72-4.66,11.69-10.54-.04-7.34-5.76-14.1-11.83-14-6.54.11-10.79,4.71-10.91,11.82-.12,7.3,4.58,12.71,11.05,12.72Z"/>
    <path class="cls-4" d="M417.66,233.97c2.04,8.86,2.63,18.02,1.34,27.08-.24,1.72-.56,3.42-.93,5.12-.32,1.47-1.22,3.35-1.22,4.83,0-2.3.03-4.59,0-6.89-.31-20.26-4.83-39.42-17.44-55.6-17.96-23.05-48.06-24.41-70.33-5.75-17.98,15.06-28.71,39.2-27.39,62.67,1.34,23.8,8.08,47.44,26.94,63.25.28.24.36.72,1.01,2.1-10.39-5.87-19.75-11.45-26.82-20.1-15.11-18.49-20.2-39.72-18.05-63.3,1.94-21.31,10.42-39.3,25.52-54.17,13.68-13.48,30.15-20.5,49.58-18.82,15.35,1.33,27.86,8.61,37.74,20.26,4.14,4.88,7.84,10.15,10.94,15.76,4.07,7.37,7.22,15.33,9.12,23.55Z"/>
    <path class="cls-4" d="M669.78,268.12c-1.02,8.95-3.49,17.68-7.54,25.7-3.61,7.14-8.61,12.04-14.32,17.51-2.62,2.52-5.38,4.92-8.15,7.27-1.07.91-3.28,3.48-4.94,2.75-2.01-.88-.11-2.99.81-4.23,4.9-6.58,10.29-14.75,12.84-22.58,1.4-4.27,2.01-8.76,2.67-13.19,4.22-28.52-3.49-59.82-26.84-78.22-22.24-17.52-50.69-13.77-70.55,5.74-11.3,11.1-18.34,24.87-24.39,39.25-.26.61-.72,1.13-1.27,1.98-1.37-1.54-.73-3.07-.49-4.26,4.37-21.68,13.05-41.01,30.29-55.75,10.11-8.64,21.9-13.31,34.97-14.04,18.25-1.01,36.11,5.12,49.69,17.38,20.03,18.09,30.32,47.44,27.21,74.67Z"/>
    <path class="cls-4" d="M446.89,269.44c.32,6.77-1.12,13.75-2.78,20.29-1.77,7-4.2,13.98-7.5,20.42-.93,1.82-2.01,3.54-3,5.33-.85,1.55-1.42,3.24-2.34,4.75-1.42,2.39-3.01,4.68-4.71,6.88-3.37,4.38-7.16,8.42-10.93,12.46-1.57,1.68-2.27,2.33-.23,4.79,6.74,8.13,14.7,14.98,22.04,22.47,1.05,1.07,2.6,1.85,2.7,3.73-2.26.68-4.06.15-5.95-1.27-11.58-8.66-22.21-18.28-31.07-29.79-1.18-1.53-1.2-2.34.25-3.46,9.63-7.44,17.67-16.68,23.82-27.18,6.08-10.38,10.31-21.73,13.44-33.31,1.27-4.69,2.26-9.35,2.77-14.16.18-1.72.42-3.47.58-5.16.85.58,1.27,3.48,1.53,4.46.78,2.9,1.22,5.82,1.36,8.74Z"/>
    <path class="cls-4" d="M340.74,384.29c-.99-.15-1.97-.39-2.95-.58-2.14-.43-4.3-.84-6.5-.84-1.14,0-2.29.11-3.41.34.1-.02.29.06.4.08.16.03.31.07.47.1.3.06.6.13.9.19.6.13,1.2.26,1.8.38.91.19,1.82.36,2.72.55,1.29.27,2.39,1.13,3.18,2.17.55.71.93,1.54,1.27,2.37s.72,1.71,1.08,2.56c.24.56.48,1.13.71,1.69.09.2.17.41.26.61.92,2.19,1.82,4.4,2.69,6.62.87,2.21,1.72,4.44,2.55,6.67.83,2.23,1.64,4.47,2.43,6.71.79,2.24,1.56,4.5,2.32,6.75.76,2.26,1.51,4.52,2.25,6.78.74,2.26,1.47,4.53,2.19,6.8.19.6.38,1.2.57,1.8,5.48,17.26,10.54,34.66,15.78,51.99.56,1.86,1.3,3.1,3.64,3.57,26.19,5.19,52.35,10.53,79.14,11.63,21.06.87,41.87.81,62.85-1.29,8.99-.89,17.91-1.47,26.73-3.63,10.21-2.5,19.88-6.9,28.79-12.43,9.51-5.89,17.04-14.79,22.96-24.17,5.83-9.25,10.26-19.25,14.67-29.23,8.22-18.59,15.69-37.48,20.57-57.25,1.1-4.46,2.62-6.94,7.09-7.42,6.59-1.49,13.19-2.98,19.77-4.47-.04-.23-.1-.48-.14-.71-6.83.62-13.65,1.24-20.47,1.86-4.96.68-9.99,1.1-14.89,2.07-21.8,4.34-43.61,8.58-65.77,10.65-20.89,1.95-41.82,3.58-62.72,5.4-25.1,2.19-50.26,2.87-75.44,3.3-2.44.04-4.89.08-7.33.11-2.46.03-4.91.06-7.37.07-2.46.02-4.91.03-7.37.03-2.46,0-4.91,0-7.37-.02-2.46-.02-4.91-.04-7.37-.08s-4.91-.08-7.36-.14c-2.45-.06-4.91-.12-7.36-.2-2.45-.08-4.91-.17-7.36-.28s-4.91-.22-7.36-.35-4.9-.28-7.36-.44c-1.19-.08-2.38-.11-3.56-.27-.12-.02-.24-.03-.36-.05ZM561.34,483.9c-7.63,3.06-15.67,4.69-23.6,6.7-11.34,2.87-22.99,3.48-34.58,4.41-16.54,1.33-33.12,1.05-49.67.83-10.62-.15-21.19-1.37-32-3.11.29-1.91,2.77-5.87,3.51-6.98,1.9-2.89,4.57-6.14,7.37-8.05,5.68-3.86,11.36-7.09,17.7-9.7,14.04-5.78,29.56-7.81,44.59-8.88,14.44-1.03,29.46-1.08,43.48,3.03,9.83,2.89,18.32,10.91,24.5,18.82,1.54,1.98.16,2.36-1.28,2.94ZM619.84,389.48c-.31,1.52-1.5,1.48-2.63,1.71-19.11,3.77-38.31,6.93-57.61,9.62-23.09,3.21-46.27,5.24-69.51,6.93-15.07,1.09-30.14,2.01-45.23,2.7-23.63,1.08-47.26.38-70.88.83-1.32.03-2.48.16-3.32-1.29-3.47-6.08-7.06-12.1-10.56-18.08,6.15.31,12.15.62,18.15.92.28-.47.54-.49.79.02,1.18,0,2.35.02,3.53.03,32.66.25,65.53.05,98.12-2.04,11.27-.73,22.54-1.73,33.78-2.81,3.92-.36,7.84-.68,11.77-1.03,15.77-1.27,31.49-3.02,47.13-5.42,14.76-2.26,29.51-4.61,44.16-7.62,2.07-.42,4.12-.97,6.85-1.63-2.04,5.85-3.38,11.49-4.54,17.17Z"/>
    <path class="cls-1" d="M341.26,417.59c-.52.6-1.23.49-1.93.42.29-.06.56-.2.8-.5.38.03.75.05,1.14.08Z"/>
    <path class="cls-2" d="M382.45,250.49c-6.87.14-11.51-4.63-11.7-12.05-.19-7.31,3.89-12.65,9.88-12.91,6.62-.29,13.32,7.14,13.41,14.85.06,5.64-4.91,9.97-11.59,10.11Z"/>
    <path class="cls-2" d="M603.95,250.48c-6.47-.01-11.17-5.43-11.05-12.72.12-7.11,4.37-11.71,10.91-11.82,6.07-.1,11.79,6.67,11.83,14,.03,5.88-5.15,10.55-11.69,10.54Z"/>
    <path class="cls-4" d="M323.5,108.79c17.07-7.78,37.17-1.73,52.95,6.34,4.89,2.5,9.68,5.23,14.28,8.24,2.3,1.5,4.55,3.08,6.75,4.74.94.71,1.88,1.43,2.76,2.22.71.64,1.89,2.46,2.73,2.76-3.73-1.31-7.54-2.36-11.4-3.2-5.71-1.24-11.49-1.92-17.26-2.7s-11.8-1.3-17.73-1.51c-10.48-.36-21.39,2.11-30.99,6.21-1.28.55-2.55,1.13-3.8,1.74-7.34,3.6-14.16,8.11-20.63,13.08-4.17,3.2-8.25,6.68-12.64,9.56-.73.48-1.48.94-2.22,1.4-.38.24-1.94.94-2.06,1.37.76-2.58,1.81-4.87,2.97-7.11,4.66-8.94,9.85-17.66,16.13-25.57,4.76-5.98,10.22-11.82,16.86-15.84,1.06-.64,2.16-1.22,3.3-1.74ZM309.22,132.62c15.9-9.07,31.98-14.3,50.11-13.62-19.45-10.33-39.15-5.12-50.11,13.62Z"/>
    <path class="cls-4" d="M607.3,105.1c10.93,1.5,21.83,5.53,30.11,13.08,3.91,3.56,8.02,6.72,11.55,10.72,6.69,7.58,10.9,15.98,13.78,25.59.32,1.07.53,1.89-.2,2.86-.57.76-1.58,1.32-2.45.67-.9-.68-1.86-1.3-2.69-2.05-8.15-7.33-16.73-14.11-26.6-18.98-24.88-12.27-50.91-13.95-77.66-7.9-6.56,1.48-13,3.52-20.32,5.53,3.17-2.75,5.59-4.96,8.11-7.03,4.66-3.82,9.6-7.29,14.79-10.35,2.62-1.54,5.3-2.97,8.03-4.29,1.37-.66,2.76-1.29,4.16-1.89,1.14-.5,2.32-.74,3.47-1.25.92-.41,1.79-.94,2.74-1.3,4.23-1.58,8.7-2.42,13.15-3.16,6.57-1.1,13.37-1.17,20.02-.26ZM639.72,133.67c-10.53-20.53-42.28-27.23-65.4-14.48,22.97-.52,44.94,1.23,65.4,14.48Z"/>
  </g>
</svg>